<?xml version="1.0" encoding="utf-8"?>
<!-- Generator: Adobe Illustrator 21.0.2, SVG Export Plug-In . SVG Version: 6.00 Build 0)  -->
<svg version="1.1" xmlns="http://www.w3.org/2000/svg" xmlns:xlink="http://www.w3.org/1999/xlink" x="0px" y="0px"
	 viewBox="0 0 460 503" style="enable-background:new 0 0 460 503;" xml:space="preserve">
<style type="text/css">
	.st0{fill:#9FD39F;stroke:#000000;stroke-miterlimit:10;}
	.st1{fill:none;stroke:#000000;stroke-miterlimit:10;}
	.st2{fill:#7ECED1;stroke:#000000;stroke-miterlimit:10;}
	.st3{fill:#E6A57A;stroke:#000000;stroke-miterlimit:10;}
	.st4{fill:none;stroke:#6DA068;stroke-miterlimit:10;}
	.st5{fill:none;stroke:#BFAC58;stroke-miterlimit:10;}
	.st6{fill:#9FD39F;}
	.st7{fill:#7ECED1;}
	.st8{fill:#E6A57A;}
	.st9{fill:#6DA068;}
	.st10{fill:#D27828;}
	.st11{fill:#BFAC58;}
	.st12{fill:#B4DAA7;}
</style>
<g id="Layer_1">
</g>
<g id="Layer_2">
	<g>
		<g>
			<path class="st12" d="M324.8,116.5c-1-10,36.9,5,40.6,6.4c22.1,8.4,43.7,18.2,65.1,28.3c0.6,0.3,3.6,0.5,3.1-0.8
				c-4.8-14.3-10.5-28.3-17.3-41.8c-3.1-6.2-6.5-12.3-10.1-18.2c-1.6-2.6-3.2-5.2-4.9-7.7c-1.1-1.7-2.6-5.1-4.4-5.9
				c-2.4-1.1-7.3,0.3-9.9,0.5c-4.6,0.3-9.2,0.6-13.8,0.9c-10.4,0.5-20.8,0.8-31.2,0.6c-9.8-0.2-19.7-0.7-29.4-2.4
				c-6.8-1.2-15.6-2.9-20.5-8.3c-3.6-3.9-3.8-10.2,0.8-13.4c6.3-4.4,16.5-3.2,23.6-2.5C341,54.8,365,62,388.3,69.3
				c0.4,0.1,3.5,0,2.8-0.9c-23-29-55.7-55.1-93.9-58.4c-31.8-2.7-61.4,14.8-82.6,37.3c-6,6.4-11.9,13.4-16.4,21
				c1.1-0.1,2.3-0.1,3.4-0.2c-12-9.1-26.9-15.5-41.4-19.2c-29.7-7.7-60.4-2-84.7,17.1C54,82.9,38,107.5,27.8,132.6
				c-0.5,1.2,2.9,1.2,3.4,0.6C41.5,123.1,53,114.2,65,106c10.8-7.4,22.8-13,36-14c9.3-0.7,18.9,1.1,27.1,5.5
				c4.8,2.5,10.4,6.4,12.6,11.6c2,4.8-1.5,6.6-5.9,6.1c-4.4-0.6-8.5-2.5-12.8-3.6c-4.5-1.1-9.2-1.4-13.9-1.2
				c-23.7,1.1-46.2,14.8-65,28.1c-5.5,3.9-10.9,8-16.1,12.2c-2.1,1.7-5.4,3.5-6.9,5.7c-1.8,2.6-1.9,7.3-2.6,10.4
				c-4,18.9-5.6,38.3-5.7,57.6c0,1.1,3,0.9,3.5,0.4C37,203.3,65,187.7,91.5,173.2c18.1-9.9,36.8-19.3,57.8-19.9
				c12.8-0.3,25.9,2.7,36.3,10.3c6.2,4.5,12.8,11.3,13.8,19.3c0.9,7-4.1,10.7-10.8,10.2c-5.5-0.4-10.6-2.9-16-3.9
				c-6.5-1.2-13.2-1.3-19.7-0.8c-15.8,1.2-31.3,5.7-46.2,11c-32.9,11.7-64.2,28.3-94.1,46.3c-0.2,0.1-0.2,0.2-0.3,0.4
				c2.4,39.9,10,80.9,26,117.7c0.4,0.9,3.2,0.9,3.6,0c10.8-23.2,26.2-44.2,43.8-62.7c5.8-6.1,11.7-12.5,18.6-17.4
				c23.9-17.1,49.9-33.1,77.6-43c12.5-4.5,30.8-10.1,42.7-1.1c4.9,3.7,10.5,11.4,9.5,17.9c-1,7-9.4,10.3-15.1,12.4
				c-10.7,4-22.1,6.2-33.2,8.7c-14.5,3.2-28.9,6.4-43.2,10.3c-13.1,3.6-26.3,7.4-38.2,14.1c-10,5.6-18.9,12.9-26.5,21.4
				c-13.1,14.5-22.5,32.2-28.6,50.7c-0.5,1.5-1.2,3.1-1.5,4.6c-0.4,2.5,0.8,3.6,2.3,5.7c3.3,4.5,7,8.6,11,12.5
				c10.5,10.3,22.7,18.9,35.3,26.5c6.5,3.9,13.1,7.5,19.8,11c0.7,0.3,3,0.5,3.2-0.5c9.2-54.4,51.1-92.1,96.9-118.2
				c5.8-3.3,11.7-7.3,17.7-10c7.8-3.6,2.1,12.8,1,15.2c-5.6,11.7-15.5,21.5-27,27.3c-5.5,2.8-11.6,4-17,7.2c-5,2.9-9.2,6.8-13,11.1
				c-19.1,21.6-28.8,51.9-36.1,79.3c-0.1,0.2,0.4,0.5,0.5,0.6c17.1,6.9,34.7,12.7,52.6,17.3c0.7,0.2,2.6,0.3,2.8-0.7
				c4.5-20.2,12.8-39.6,24.2-56.9c7.6-11.5,17.6-25.2,30.6-31c4-1.8,10.2-2.1,10.9,3.7c0.6,4.8-3.7,9.7-6.6,13
				c-3.7,4.3-7.9,8.1-12.3,11.7c-2.2,1.9-4.7,3.4-6.6,5.7c-13.5,16.3-18,38.6-18.2,59.3c0,0.6,1,0.7,1.4,0.8
				c8.4,1.4,16.9,2.6,25.4,3.4c3.9,0.4,8,0.3,11.9,1.1c9.3,2,15.5,8.7,15.8,18.3c0,1.2,3.5,1.1,3.7,0c1.3-5.5,4.4-10.8,7.9-15.2
				c6-7.3,14.1-10.1,22-14.5c9.9-5.5,19.2-12.2,28.2-19.2c2.9-2.2,5.7-4.5,8.5-6.8c2.3-1.9,5.3-3.6,6.3-6.3
				c1.3-3.4,1.1-8.1,1.4-11.7c0.3-3.7,0.4-7.5,0.2-11.3c-0.5-9.8-3.6-17.8-11.4-24.1c-6.9-5.6-15.4-8.9-22.7-14
				c-6.5-4.5-12.9-12-10.9-20.5c1.9-8.2,11.8-5.3,17.2-3.1c11.4,4.7,21.5,13,29.5,22.1c4.7,5.4,9.5,11.4,12,18.1
				c3.2,8.4,2.9,17.4,1.2,26.1c-0.3,1.2,3.2,0.7,3.7,0.2c12-12.2,23.2-25.3,33.2-39.3c1.1-1.5,2.2-3.1,3.2-4.6
				c0.9-1.4,4-4.7,4.2-6.3c0.2-1.4-0.9-3.5-1.4-4.8c-1.6-4.3-4-8.2-6.7-11.9c-12.2-16.2-30.9-27-48.4-36.6
				c-8.9-4.8-17.9-9.4-26.8-14.1c-6.2-3.4-13.1-6.8-18.2-11.7c-4-3.9-5.9-10.5,0.4-13.1c9.9-4.2,24.1,0.7,33.5,4.1
				c33.3,11.8,63.8,34.7,75.3,69.1c0.3,0.9,3.2,0.8,3.6,0c4.9-9.3,9.4-18.9,13.1-28.7c1.2-3.1,4.2-8.4,3.9-11.7
				c-0.1-1.5-2.2-3.9-2.9-5.3c-1.2-2-2.4-4-3.6-6c-6.7-10.5-14.7-20.4-24.8-27.7c-9-6.6-19.4-11-29.8-14.8
				c-14.1-5.2-28.4-9.7-42.4-15.3c-10.9-4.4-28.9-11.7-31.2-25.1c-1.1-6.3,2.4-12.2,6.9-16.3c0.7-0.6,2-2.2,3-2.4
				c0.6-0.1,4.5,0.6,5.9,0.7c2.3,0.2,4.6,0.4,7,0.7c4.8,0.6,9.5,1.4,14.2,2.5c15.8,3.6,30.8,10.1,44.2,19.2
				c24.4,16.4,42.9,40.2,56.3,66.2c0.5,0.9,3.5,0.9,3.7-0.2c3.6-18.8,4.7-38,3.1-57c-0.9-10.1-2.5-20.2-4.7-30.1
				c-0.6-3-0.8-7.1-2.8-9.4c-2.7-3.1-7.4-5.4-10.8-7.6c-24-15.2-50.4-23.5-77.6-30.6c-6.7-1.8-13.6-3.8-19.1-8.2
				C328.7,131.5,326,124.2,324.8,116.5c-0.2-1.2-3.9-1-3.7,0c1.7,11.7,7.4,20.5,18.4,25.4c10.9,4.9,23.1,6.4,34.4,9.9
				c14.9,4.6,29.4,10.4,43.1,17.8c3.8,2,7.6,4.2,11.3,6.6c3.4,2.2,8.7,4.8,10.9,8.2c2.2,3.4,2.5,9.2,3.3,13.2
				c1.1,5.4,2,10.9,2.7,16.4c2.7,21.8,1.9,43.9-2.2,65.5c1.2-0.1,2.5-0.1,3.7-0.2c-12.1-23.5-28.4-45.3-49.5-61.5
				c-12-9.2-25.4-16.4-39.7-21.2c-7.9-2.7-16.1-4.6-24.3-5.8c-4.2-0.6-8.5-1-12.8-1.3c-2.5-0.1-5.7-0.9-8,0.1
				c-3.4,1.5-6.8,6.1-8.5,9.3c-3.9,7.4-1.6,15,4.1,20.8c11.3,11.7,28.7,16.8,43.6,22.1c12.8,4.6,26,8.5,38.5,14.2
				c13.2,6,24.2,14.6,33.1,26.1c2.6,3.3,5,6.8,7.2,10.3c1.3,2,2.5,4,3.6,6c0.4,0.8,1.1,1.7,1.5,2.6c1.1,2.6,0.5,4.9-0.3,7.5
				c-3.5,12-9.4,23.7-15.3,34.8c1.2,0,2.4,0,3.6,0c-10.5-31.3-35.9-52.1-65.3-65.4c-11.5-5.2-24-9.5-36.7-10.1
				c-5.4-0.3-15.4-0.3-17.9,5.9c-2,5.1,2.5,9.8,6.1,12.6c6.5,5.1,14,8.8,21.3,12.6c20,10.5,41,20.5,58.1,35.5
				c4.5,4,8.8,8.3,12.2,13.2c2.7,3.7,8.4,11.6,6.2,16.3c-2.3,4.9-6.5,9.5-9.7,13.8c-3.1,4.2-6.3,8.2-9.6,12.2
				c-6.4,7.8-13.2,15.3-20.3,22.5c1.2,0.1,2.5,0.2,3.7,0.2c1.6-7.9,2-16.1-0.4-23.9c-2-6.5-6-12.3-10.2-17.5
				c-7.2-9-16.1-16.9-26.2-22.6c-7.8-4.4-31.6-13.3-30.9,3.9c0.8,20.2,28.1,23.5,38.9,36.5c3.7,4.5,5.4,9.9,6,15.6
				c0.8,7.6,0.9,17-1.1,24.4c-1.2,4.3-5.6,7-9,9.7c-3.4,2.7-6.8,5.4-10.3,8c-5.3,4-10.8,7.8-16.4,11.3c-8.7,5.5-19.3,8.7-26.7,16.1
				c-5,5-9.2,11.7-10.9,18.7c1.2,0,2.5,0,3.7,0c-0.3-9.9-6.6-16.6-15.9-19.3c-3-0.8-5.7-1-8.8-1.2c-10.4-0.7-20.8-2.1-31.1-3.9
				c0.5,0.3,0.9,0.5,1.4,0.8c0.1-10.1,1.2-20.1,3.8-29.9c2.7-10,7.4-22.8,15.2-30.2c7.4-7,15.9-12.3,21.6-21c2.1-3.3,4.5-8,1.9-11.7
				c-2.4-3.3-7.1-4-10.8-3.5c-12.7,1.9-23.2,15-30.5,24.4c-14.9,19.4-25.5,42.4-30.7,66.2c0.9-0.2,1.9-0.4,2.8-0.7
				c-12.8-3.3-25.4-7.1-37.9-11.6c-2.9-1.1-5.9-2.2-8.8-3.3c-0.8-0.3-2.9-0.9-3.5-1.4c-1.4-1.4-0.7-0.5-0.7-2
				c0.1-2.8,1.8-6.3,2.6-9.1c4.5-15,9.9-29.8,17.1-43.8c6.9-13.5,16-28.5,29.9-35.7c6.6-3.4,13.7-5,20-8.9c6-3.7,11.3-8.5,15.7-13.9
				c4.6-5.7,13.4-18,10-26.1c-2.7-6.4-10.8-1.5-14.6,0.7c-19.2,11.1-38.3,21.8-55.5,36.1c-28.1,23.4-49.5,54.1-55.7,90.6
				c1.1-0.2,2.1-0.4,3.2-0.5c-14.9-7.6-29.4-16.2-42.5-26.6c-5.6-4.5-11-9.2-15.9-14.5c-3-3.2-9.8-9.3-8.9-14
				c1.7-8.6,6.2-17.7,10.2-25.5c4.9-9.7,10.8-18.9,17.9-27.1c8.2-9.4,17.9-17.5,28.9-23.5c14-7.7,29.9-11.6,45.2-15.5
				c14-3.5,28.1-6.5,42.2-9.7c10-2.3,20.4-4.5,29.8-8.8c5-2.3,11-5.8,11.8-11.8c0.9-6.3-4-13.2-8.3-17.2c-9.7-9.1-25.1-7.5-37-4.7
				c-17,4-33.1,11.9-48.4,20.3c-13.1,7.2-25.7,15.1-38,23.5c-5.3,3.6-9.9,7.4-14.6,11.8c-16.5,15.7-31.2,33.5-43,53
				c-3.8,6.2-7.2,12.7-10.3,19.3c1.2,0,2.4,0,3.6,0C31,338,24.3,310.7,20.1,283.4c-1.2-7.7-2.1-15.4-2.9-23.2
				c-0.4-3.8-0.9-7.6-0.9-11.4c0-3,0.8-3.2,3.2-4.6c6.8-4,13.6-7.9,20.5-11.7c18.7-10.3,38-19.8,57.9-27.7
				c19.3-7.7,40.3-15,61.3-15.2c8.3-0.1,15.2,2.2,23.1,4c4.5,1.1,9.5,1.7,14,0.2c7.5-2.4,8.2-9.9,5.4-16.3
				c-4.4-10.1-14.6-17.2-24.5-21.2c-15.1-6-32-5.8-47.5-2c-11.9,2.9-22.9,8-33.7,13.8c-12.2,6.5-24.2,13.3-36,20.5
				c-14.8,9.1-29.5,18.8-42.6,30.3c-1.8,1.6-3.6,3.3-5.3,5c1.2,0.1,2.3,0.3,3.5,0.4c0.1-18.4,1.6-36.8,5.2-54.8
				c0.7-3.8,1.1-10,3.5-13.1c1.7-2.2,4.8-4,7-5.7c5.1-4.1,10.3-8,15.7-11.8c11.5-8.1,23.7-15.5,36.8-20.8
				c12.8-5.2,26.9-8.4,40.4-3.8c5.2,1.8,12.5,4.4,17.9,1.9c3.6-1.6,3.5-5.1,1.9-8.2c-6.6-12.7-25.5-17.5-38.5-17.6
				C93,90.2,80.8,94,70,100c-15.3,8.5-29.6,20.2-42.1,32.4c1.1,0.2,2.3,0.4,3.4,0.6c15-36.8,43.5-75.3,84.5-84.2
				c23.8-5.1,48.5,0.8,69.7,12c4.4,2.4,8.9,4.9,12.9,8c0.7,0.5,2.9,0.7,3.4-0.2c10.1-16.9,25.5-31.9,42-42.4
				c13.9-8.9,30.4-15.2,47.1-15.1c15.6,0.2,30.8,5.2,44.5,12.4c20.5,10.8,37.8,27,52.1,45.1c0.9-0.3,1.8-0.6,2.8-0.9
				c-18.7-5.9-37.6-11.3-56.9-14.8c-8.4-1.5-17-2.8-25.6-2.8c-5.5,0-11.6,0.3-16.5,3c-9.6,5.2-4.4,15.6,3.2,19.6
				c13.2,6.9,30.3,7.3,44.8,7.7c19.1,0.5,38.2-0.5,57.3-2.1c-0.8-0.2-1.5-0.4-2.3-0.6c15.7,22.4,27.3,47.3,36,73.2
				c1-0.3,2.1-0.5,3.1-0.8c-24.7-11.7-49.7-23.2-75.5-32.1c-3.8-1.3-37.9-13.9-36.7-1.6C321.2,117.7,324.9,117.6,324.8,116.5z"/>
			<path class="st12" d="M281.6,136.9c-6.4,0.7-15-1.2-16.5-8.7c-0.1-0.4-0.5-0.6-0.9-0.7c-5.4-1.3-1.4-6.7,1.1-8.7
				c5.9-4.7,14.5-5.9,21.4-3c4.5,1.9,8,5.9,7.2,11C293,132.8,287.1,136,281.6,136.9c-2.5,0.4-0.7,1.8,1,1.5
				c6.9-1.1,15.7-5.2,15.3-13.6c-0.5-8.6-10.9-11.9-18-12.2c-7.3-0.3-17.7,2.3-21.3,9.4c-1.1,2.2-1,4.4,1.1,5.8
				c0.7,0.5,2.2,0.9,1.8,0.5c0.3,0.4,0.4,1.4,0.7,1.9c3.5,7.8,13,8.9,20.5,8.1C285.1,138.1,283.2,136.7,281.6,136.9z"/>
		</g>
		<path class="st12" d="M198.2,68.3c0,0,99.7,205.3,76.4,424.7c0,0,41.4-171.5-72.7-426.6L198.2,68.3z"/>
		<path class="st12" d="M20.4,300.5c0,0,54-60,140-78c0,0-73,17-138,83L20.4,300.5z"/>
		<g>
			<path class="st12" d="M74.2,404.4c3.7-12.1,11.6-23.6,19.2-33.5c21.9-28.5,52-50,84.1-65.7c29.2-14.2,60.4-23.8,92.2-30.5
				c2.5-0.5,0.3-1.4-1.1-1.1c-49.4,10.3-98.5,27.9-139.1,58.6c-21.3,16.1-40.7,36.1-53.3,59.9c-2.1,4-4.2,8.1-5.5,12.5
				C70.3,405.4,73.9,405.3,74.2,404.4L74.2,404.4z"/>
		</g>
		<g>
			<path class="st12" d="M231.2,138.6c-12.6-5.4-26.9-7.9-40.5-9.5c-34.2-3.9-69.1,0.9-101.4,12.5C63,151,38.6,164.7,16,181.1
				c-1.2,0.9,1.4,3.6,2.7,2.6C75.2,142.6,148.5,118.6,218,137c4.5,1.2,9,2.5,13.2,4.3C233.4,142.2,232.7,139.2,231.2,138.6
				L231.2,138.6z"/>
		</g>
		<g>
			<path class="st12" d="M222.6,111.3c6.2-4.4,14.2-7,21.4-9.2c23.4-7.2,48.2-9,72.6-8.9c23.3,0.2,46.5,2.5,69.5,6.1
				c2.4,0.4-0.3-1.6-1.4-1.8c-35.6-5.5-72.1-8.4-108-4.3c-17.1,1.9-34.7,5.4-50.4,12.7c-2.3,1.1-4.8,2.2-6.9,3.7
				C218.6,110.2,221.7,111.9,222.6,111.3L222.6,111.3z"/>
		</g>
		<g>
			<path class="st12" d="M318.6,456.3c4.3-8.5,5.5-19.3,4.3-28.7c-2.9-23.7-21.3-40.7-41.1-51.9c-1.6-0.9-4,0.3-1.8,1.5
				c19.7,11.1,37.9,28,39.6,51.9c0.6,8.5-0.5,18-4.4,25.6C314.5,456,317.9,457.6,318.6,456.3L318.6,456.3z"/>
		</g>
		<g>
			<path class="st12" d="M245.4,471c-2.8-29.3,7.4-63.9,33.4-80c2.1-1.3-1.1-1.7-2.2-1c-26.9,16.7-37.7,51.5-34.8,82
				C241.9,473.1,245.5,472.3,245.4,471L245.4,471z"/>
		</g>
		<g>
			<path class="st12" d="M450.2,230.5c-11.7-13.5-26-25.2-40.7-35.2c-27.9-19-61.2-32.4-95.6-29.4c-23.2,2-44.6,11.4-63.2,25.2
				c-1.9,1.4,1,3.4,2.6,2.3c16.9-12.6,36.2-21.5,57.2-24c17.4-2.1,35.1,0.3,51.7,5.7c27,8.8,51.3,25.2,72.1,44.4
				c4.2,3.9,9,8.5,12.5,12.6C448.1,233.5,451.6,232.2,450.2,230.5L450.2,230.5z"/>
		</g>
		<g>
			<path class="st12" d="M263.8,232.5c12.2,1.2,24.4,4.1,36.2,7.4c28.3,7.8,55.7,19.7,80.1,36c18.2,12.1,34.4,26.9,48.1,43.9
				c0.4,0.4,3.3,2.6,2.3,1.4c-38.1-47.5-95.5-77.3-154.7-88.8c-4.9-0.9-9.8-1.8-14.7-2.3C261.3,230.1,262.7,232.4,263.8,232.5
				L263.8,232.5z"/>
		</g>
		<g>
			<path class="st12" d="M212.4,91.2C201.1,81.8,186.9,75,173,70.4c-29.1-9.7-60.5-7.7-87.7,6.9C61.9,89.9,43.3,110,28.1,131.6
				c-1.1,1.6,1.7,4.1,2.8,2.5c23.1-33.1,55.7-62.9,97.7-66.2c24.3-1.9,48.6,5.1,69.4,17.3c4.3,2.5,8.5,5.2,12.4,8.3
				C212.2,95,214.2,92.7,212.4,91.2L212.4,91.2z"/>
		</g>
	</g>
</g>
</svg>
