<?xml version="1.0" encoding="utf-8"?>
<!-- Generator: Adobe Illustrator 21.0.2, SVG Export Plug-In . SVG Version: 6.00 Build 0)  -->
<svg version="1.1" id="Camada_1" xmlns="http://www.w3.org/2000/svg" xmlns:xlink="http://www.w3.org/1999/xlink" x="0px" y="0px"
	 viewBox="0 0 16 16" style="enable-background:new 0 0 16 16;" xml:space="preserve">
<style type="text/css">
	.st0{fill:#225125;}
	.st1{fill:#E84A21;}
</style>
<path class="st0" d="M593.7,350c-0.6-2.7-1.5-5.3-2.7-7.7c-1.2-2.4-2.8-4.6-4.7-6.1c-1.9-1.5-4.2-2.2-6.6-2c-2.3,0.1-4.7,0.9-7,2.1
	c-4.5,2.4-8.7,5.9-12.7,9.6c-3.9,3.8-7.7,7.7-11,11.9c-3.4,4.2-6.4,8.6-9.1,13.2c-2.6,4.6-4.9,9.4-6.8,14.3c-0.9,2.5-1.7,5-2.3,7.5
	c-0.6,2.5-1.1,5-1.5,7.5c-0.2,1.3-0.3,2.5-0.4,3.8c0,0.6,0,1.2-0.1,1.9c0,0.6,0,1.1,0,1.6c0.1,2.1,0.7,4.2,1.6,5.9
	c1.8,3.4,5.4,5.6,9.8,5.9c4.4,0.4,9.2-1,13.8-3.2c4.5-2.3,8.8-5.4,12.8-8.9c4-3.5,7.7-7.5,11.2-11.8c3.4-4.3,6.6-8.8,9.4-13.6
	c1.4-2.4,2.8-4.8,4.1-7.3c1.3-2.5,2.5-5,3.7-7.5c2.4-5.1,4.7-10.2,6.8-15.4c1.1-2.6,2.1-5.2,3-7.8l1.4-4c0.5-1.3,1-2.7,1.3-3.9
	c0.4-1.4,1.9-2.2,3.2-1.8c1.3,0.4,2.1,1.8,1.8,3.1l-0.1,0.4c-1.2,5.2-2.4,10.5-3.5,15.8c-1.1,5.3-2.2,10.5-3.3,15.8
	c-2.1,10.5-4.5,20.9-5.7,31.4c-0.3,2.6-0.5,5.2-0.6,7.7c-0.1,2.5-0.1,5.1,0.2,7.4c0.3,2.3,1,4.5,1.9,5.5c0.2,0.2,0.4,0.4,0.7,0.6
	c0.1,0.1,0.3,0.1,0.4,0.2c0.1,0,0.5,0.1,0.7,0.2c1,0.2,2,0.2,3,0.1c2.1-0.3,4.3-1.3,6.3-2.7c2-1.4,4-3.1,5.8-5
	c3.6-3.8,6.8-8.1,9.7-12.7l0,0c0.2-0.2,0.5-0.3,0.7-0.2c0.2,0.1,0.3,0.4,0.2,0.6c-0.9,2.6-2,5.1-3.3,7.6c-1.3,2.5-2.7,4.9-4.3,7.1
	c-1.7,2.3-3.5,4.5-5.7,6.4c-2.2,1.9-4.9,3.7-8.1,4.5c-1.6,0.4-3.3,0.6-5,0.5c-0.5,0-0.8-0.1-1.3-0.2c-0.5-0.1-1-0.2-1.5-0.4
	c-1-0.4-1.9-1-2.7-1.6c-1.6-1.4-2.5-3-3.2-4.5c-0.7-1.5-1.1-3.1-1.5-4.6c-1.2-6-1-11.6-0.7-17.2c0.4-5.6,1.2-11.1,2.1-16.5
	c0.9-5.4,2.1-10.8,3.5-16.1c2.8-10.6,6.4-20.9,10.2-31.1l5,1.7c-1.3,2.7-2.5,5.1-3.9,7.6c-1.3,2.5-2.5,5-3.8,7.5
	c-2.5,5.1-4.8,10.1-7,15.3c-4.4,10.3-9.3,20.7-15.4,30.3c-3.1,4.8-6.6,9.5-10.6,13.8c-4,4.3-8.6,8.2-13.9,11.3
	c-2.7,1.5-5.5,2.8-8.6,3.7c-3.1,0.9-6.4,1.5-9.8,1.3c-3.4-0.1-7-0.9-10.2-2.7c-3.2-1.7-6-4.4-7.9-7.6c-1.9-3.1-2.9-6.7-3.2-10.1
	c-0.1-0.9-0.1-1.7-0.1-2.5c0-0.8,0-1.6,0-2.3c0.1-1.5,0.2-3.1,0.4-4.6c0.3-3,0.9-6,1.7-9c0.8-2.9,1.7-5.8,2.8-8.5
	c2.2-5.6,5-10.8,8.2-15.8c3.3-4.9,6.9-9.5,10.9-13.8c4-4.2,8.4-8.2,13-11.7c2.3-1.7,4.7-3.4,7.1-5c2.5-1.6,5.1-3,8-4.1
	c2.9-1.1,6-1.9,9.3-1.7c1.6,0.1,3.3,0.5,4.8,1.2c1.5,0.7,2.9,1.6,4,2.8c2.3,2.2,3.6,5,4.6,7.8c0.9,2.8,1.4,5.6,1.5,8.5
	c0,0.3-0.2,0.5-0.5,0.5C594,350.4,593.8,350.3,593.7,350L593.7,350z"/>
<path class="st1" d="M643.4,408.3c-5.3-6.9-9.4-14.7-12.4-23c-3-8.2-4.8-17-5.1-25.8c-0.3-8.9,1-17.8,3.7-26.3
	c2.7-8.5,6.9-16.6,12-23.8c1.3-1.8,2.6-3.6,4-5.3l4.1-5.1c1.4-1.7,2.8-3.3,4.2-5c1.4-1.6,2.8-3.3,4.3-4.9l4.4-4.8l4.5-4.7
	c1.5-1.6,3.1-3.1,4.6-4.6c1.6-1.5,3.1-3.1,4.7-4.6c6.3-6,12.8-11.8,19.5-17.5c6.7-5.6,13.5-11,20.7-16.2c2.1-1.5,4.9-1,6.4,1.1
	l0.1,0.1l0.1,0.1c1.5,2.2,2.8,4.3,4,6.5c1.3,2.2,2.5,4.4,3.8,6.6c2.4,4.4,4.8,8.9,6.9,13.5c4.3,9.1,8,18.5,11,28.3
	c3,9.7,5.2,19.8,6,30.1c0.8,10.3,0.1,21.1-3,31.3c-3,9.8-7,19.6-13.3,28.3c-3.1,4.3-6.7,8.4-11,11.8c-4.2,3.5-9,6.3-14.2,8.3
	c-5.1,2-10.6,3.1-16.1,3.2c-2.7,0.1-5.5-0.1-8.2-0.5c-0.7-0.1-1.4-0.2-2.1-0.4l-1.1-0.2l-1-0.3c-1.4-0.4-2.6-0.8-3.9-1.3
	c-5-1.9-9.9-4.5-14.2-8c-4.3-3.5-8.1-8-10.4-13.3c-2.3-5.3-3-11.2-2.5-16.7c0.5-5.5,2.1-10.7,4.2-15.6c2.1-4.9,4.7-9.3,7.4-13.6
	c1.4-2.1,2.9-4.3,4.5-6.3c1.7-2.1,3.4-4.1,5.6-5.9c1.1-0.9,2.3-1.8,3.8-2.6c1.5-0.7,3.3-1.5,5.7-1.3c1.2,0.1,2.5,0.6,3.5,1.2
	c1,0.7,1.8,1.6,2.3,2.4c1.1,1.7,1.5,3.3,1.8,4.8c0.6,3,0.5,5.7,0.2,8.4c-0.2,2.7-0.7,5.2-1.2,7.8c-2.3,10.1-6.2,19.5-10.7,28.4
	c-4.5,9-9.8,17.5-15.6,25.7c-1.4,2-2.9,4-4.4,6c-1.4,1.9-2.7,3.9-3.9,5.9c-2.2,4.1-3.7,8.6-3.2,13c0.3,2.2,1,4.2,2.3,6.1
	c1.2,1.8,2.9,3.4,4.8,4.8c3.7,2.8,8.2,4.6,12.8,6c4.6,1.4,9.4,2.2,14.3,2.7c4.8,0.5,9.7,0.7,14.6,0.6c9.8-0.2,19.5-1.4,29.1-3.6
	c4.8-1.1,9.5-2.5,14-4.2c4.5-1.7,9-3.7,13.1-6.1c4.1-2.4,8-5.3,11-8.8c3.1-3.5,5.2-7.6,5.7-11.9c0.1-1.1,0.2-2.2,0.1-3.3
	c-0.1-1.1-0.2-2.2-0.5-3.2c-0.5-2.1-1.4-3.9-2.6-5.3c-2.5-2.7-6.9-3.4-11.2-2.8c-4.4,0.5-8.8,2.2-13,4.2c-4.2,2-8.2,4.6-11.9,7.5
	c-7.4,5.8-14,12.7-19,20.6c-5,7.8-8.3,16.6-8.8,25.6c-0.5,8.9,1.6,18.2,7.2,24.4c2.8,3.1,6.4,5.4,10.5,6.7c4.1,1.4,8.6,1.9,13.1,1.6
	c9.1-0.4,18.2-3.3,26.7-7.4c8.5-4.1,16.5-9.6,24-15.7c7.5-6.1,14.4-13,20.8-20.3c6.4-7.3,12.3-15.1,17.7-23.2
	c5.5-8.1,10.4-16.6,15-25.3c9.2-17.4,16.7-35.6,23-54.3c0.1-0.3,0.4-0.4,0.6-0.3c0.2,0.1,0.4,0.4,0.3,0.6c-5,19.2-11.6,38-20.1,56
	c-4.2,9-9,17.8-14.2,26.3c-5.2,8.5-11,16.7-17.4,24.5c-6.4,7.8-13.3,15.1-21,21.7c-7.7,6.6-16,12.5-25.2,17.2
	c-4.6,2.3-9.4,4.3-14.3,5.9c-5,1.5-10.2,2.6-15.5,2.9c-5.3,0.3-10.9-0.2-16.2-2c-5.3-1.7-10.4-4.8-14.2-9c-3.9-4.2-6.5-9.4-8-14.7
	c-1.5-5.3-2-10.7-1.7-16.1c0.3-5.4,1.5-10.7,3.3-15.7c1.8-5,4.2-9.8,7.1-14.1c5.8-8.7,13.2-16.2,21.7-22.2c4.2-3,8.7-5.6,13.5-7.7
	c4.8-2,9.9-3.7,15.4-4.1c2.7-0.2,5.6-0.1,8.4,0.7c2.8,0.8,5.6,2.4,7.6,4.8c2,2.4,3.1,5.2,3.6,8c0.2,1.4,0.4,2.8,0.4,4.1
	c0,1.4-0.1,2.8-0.3,4.1c-0.4,2.7-1.4,5.4-2.6,7.8c-1.3,2.4-2.9,4.5-4.7,6.4c-3.6,3.8-7.9,6.8-12.3,9.2c-8.9,4.9-18.6,7.9-28.3,10.1
	c-9.8,2.2-19.7,3.2-29.7,3.5c-10,0.2-20-0.5-29.8-3.2c-4.9-1.4-9.7-3.2-14-6.2c-2.1-1.5-4.1-3.4-5.7-5.6c-1.6-2.2-2.7-4.9-3.1-7.6
	c-0.4-2.7-0.2-5.5,0.4-8.1c0.6-2.6,1.6-5.1,2.8-7.4c1.2-2.3,2.5-4.5,4-6.6c1.4-2,2.8-4,4.1-6.1c5.4-8.2,10.2-16.7,14.3-25.5
	c4-8.8,7.4-18,9.1-27.3c0.4-2.3,0.7-4.6,0.9-6.9c0.1-2.2,0-4.5-0.4-6.4c-0.2-0.9-0.5-1.7-0.8-2.1c-0.1-0.2-0.2-0.3-0.2-0.2
	c0,0,0.1,0,0,0c0,0-0.6,0.1-1.3,0.5c-0.7,0.4-1.5,1-2.2,1.7c-1.5,1.4-3,3.1-4.4,5c-1.4,1.8-2.7,3.8-3.9,5.8
	c-2.5,4.1-4.8,8.2-6.5,12.5c-1.7,4.3-3,8.7-3.3,13c-0.3,4.3,0.3,8.5,2,12.2c3.4,7.5,11.1,12.9,19.5,15.9c1,0.4,2.1,0.7,3.1,1
	l0.8,0.2l0.7,0.2c0.5,0.1,1,0.2,1.6,0.2c2.1,0.3,4.4,0.4,6.5,0.2c4.4-0.2,8.7-1.1,12.8-2.7c8.2-3.2,15-9.3,20.2-16.8
	c2.6-3.7,4.8-7.8,6.7-12c1.9-4.2,3.5-8.7,4.9-13.2c2.7-8.7,3.2-18.1,2.5-27.4c-0.7-9.4-2.6-18.8-5.3-28c-2.7-9.2-6.2-18.2-10.2-27
	c-2-4.4-4.1-8.8-6.4-13.1c-1.1-2.1-2.3-4.3-3.5-6.4c-1.2-2.1-2.4-4.2-3.6-6.2l6.6,1.3c-6.9,4.7-13.8,10-20.4,15.3
	c-6.7,5.3-13.2,10.8-19.6,16.6c-6.3,5.7-12.5,11.6-18.4,17.8c-1.5,1.5-3,3.1-4.4,4.6c-1.4,1.6-2.9,3.1-4.3,4.7
	c-2.8,3.2-5.7,6.4-8.1,9.7c-5,6.7-9.2,14-12.2,21.8c-2.9,7.8-4.5,16.1-4.6,24.6c-0.1,8.4,1.2,16.9,3.6,25c1.2,4.1,2.7,8.1,4.5,12
	c1.8,3.9,3.8,7.7,6.2,11.2l0,0c0.1,0.2,0.1,0.5-0.1,0.7C643.8,408.5,643.5,408.5,643.4,408.3z"/>
<path class="st1" d="M1.7,10.7c-0.3-0.4-0.6-0.9-0.8-1.4c-0.2-0.5-0.3-1-0.3-1.6c0-0.5,0.1-1.1,0.2-1.6c0.2-0.5,0.4-1,0.7-1.5
	c0.1-0.1,0.2-0.2,0.2-0.3L2.1,4c0.1-0.1,0.2-0.2,0.3-0.3c0.1-0.1,0.2-0.2,0.3-0.3l0.3-0.3l0.3-0.3c0.1-0.1,0.2-0.2,0.3-0.3
	c0.1-0.1,0.2-0.2,0.3-0.3c0.4-0.4,0.8-0.7,1.2-1.1c0.4-0.3,0.8-0.7,1.3-1c0.1-0.1,0.3-0.1,0.4,0.1l0,0l0,0c0.1,0.1,0.2,0.3,0.2,0.4
	C6.9,0.8,7,0.9,7,1.1c0.1,0.3,0.3,0.5,0.4,0.8C7.7,2.4,7.9,3,8.1,3.6c0.2,0.6,0.3,1.2,0.4,1.8c0,0.6,0,1.3-0.2,1.9
	C8.1,8,7.9,8.6,7.5,9.1C7.3,9.4,7.1,9.6,6.8,9.8C6.6,10,6.3,10.2,6,10.3c-0.3,0.1-0.6,0.2-1,0.2c-0.2,0-0.3,0-0.5,0c0,0-0.1,0-0.1,0
	l-0.1,0l-0.1,0c-0.1,0-0.2-0.1-0.2-0.1c-0.3-0.1-0.6-0.3-0.9-0.5C2.8,9.7,2.6,9.4,2.5,9.1C2.3,8.7,2.3,8.4,2.3,8
	c0-0.3,0.1-0.7,0.3-1C2.7,6.8,2.9,6.5,3,6.2C3.1,6.1,3.2,6,3.3,5.9c0.1-0.1,0.2-0.2,0.3-0.4c0.1-0.1,0.1-0.1,0.2-0.2
	c0.1,0,0.2-0.1,0.4-0.1c0.1,0,0.2,0,0.2,0.1c0.1,0,0.1,0.1,0.1,0.1c0.1,0.1,0.1,0.2,0.1,0.3c0,0.2,0,0.4,0,0.5c0,0.2,0,0.3-0.1,0.5
	C4.5,7.4,4.3,7.9,4,8.5C3.7,9,3.4,9.6,3,10.1c-0.1,0.1-0.2,0.2-0.3,0.4c-0.1,0.1-0.2,0.2-0.2,0.4c-0.1,0.2-0.2,0.5-0.2,0.8
	c0,0.1,0.1,0.3,0.1,0.4c0.1,0.1,0.2,0.2,0.3,0.3c0.2,0.2,0.5,0.3,0.8,0.4c0.3,0.1,0.6,0.1,0.9,0.2c0.3,0,0.6,0,0.9,0
	c0.6,0,1.2-0.1,1.8-0.2c0.3-0.1,0.6-0.2,0.9-0.3c0.3-0.1,0.5-0.2,0.8-0.4c0.3-0.1,0.5-0.3,0.7-0.5c0.2-0.2,0.3-0.5,0.3-0.7
	c0-0.1,0-0.1,0-0.2c0-0.1,0-0.1,0-0.2c0-0.1-0.1-0.2-0.2-0.3C9.4,9.8,9.2,9.8,8.9,9.8c-0.3,0-0.5,0.1-0.8,0.3
	c-0.3,0.1-0.5,0.3-0.7,0.5c-0.5,0.4-0.9,0.8-1.2,1.3c-0.3,0.5-0.5,1-0.5,1.6c0,0.5,0.1,1.1,0.4,1.5c0.2,0.2,0.4,0.3,0.6,0.4
	c0.2,0.1,0.5,0.1,0.8,0.1c0.6,0,1.1-0.2,1.6-0.5c0.5-0.3,1-0.6,1.5-1c0.5-0.4,0.9-0.8,1.3-1.2c0.4-0.4,0.8-0.9,1.1-1.4
	c0.3-0.5,0.6-1,0.9-1.5c0.6-1.1,1-2.2,1.4-3.3c0,0,0,0,0,0c0,0,0,0,0,0c-0.3,1.2-0.7,2.3-1.2,3.4c-0.3,0.6-0.5,1.1-0.9,1.6
	c-0.3,0.5-0.7,1-1.1,1.5c-0.4,0.5-0.8,0.9-1.3,1.3c-0.5,0.4-1,0.8-1.5,1c-0.3,0.1-0.6,0.3-0.9,0.4c-0.3,0.1-0.6,0.2-0.9,0.2
	c-0.3,0-0.7,0-1-0.1c-0.3-0.1-0.6-0.3-0.9-0.6c-0.2-0.3-0.4-0.6-0.5-0.9c-0.1-0.3-0.1-0.7-0.1-1c0-0.3,0.1-0.7,0.2-1
	c0.1-0.3,0.3-0.6,0.4-0.9c0.4-0.5,0.8-1,1.3-1.4C7.4,10,7.6,9.8,7.9,9.7c0.3-0.1,0.6-0.2,0.9-0.2c0.2,0,0.3,0,0.5,0
	c0.2,0,0.3,0.1,0.5,0.3c0.1,0.1,0.2,0.3,0.2,0.5c0,0.1,0,0.2,0,0.3c0,0.1,0,0.2,0,0.3c0,0.2-0.1,0.3-0.2,0.5
	c-0.1,0.1-0.2,0.3-0.3,0.4c-0.2,0.2-0.5,0.4-0.8,0.6c-0.5,0.3-1.1,0.5-1.7,0.6C6.5,12.9,5.9,13,5.3,13c-0.6,0-1.2,0-1.8-0.2
	c-0.3-0.1-0.6-0.2-0.9-0.4c-0.1-0.1-0.3-0.2-0.3-0.3c-0.1-0.1-0.2-0.3-0.2-0.5c0-0.2,0-0.3,0-0.5c0-0.2,0.1-0.3,0.2-0.5
	c0.1-0.1,0.2-0.3,0.2-0.4c0.1-0.1,0.2-0.2,0.3-0.4c0.3-0.5,0.6-1,0.9-1.6c0.2-0.5,0.5-1.1,0.6-1.7c0-0.1,0-0.3,0.1-0.4
	c0-0.1,0-0.3,0-0.4c0-0.1,0-0.1-0.1-0.1c0,0,0,0,0,0c0,0,0,0,0,0c0,0,0,0-0.1,0c0,0-0.1,0.1-0.1,0.1C3.9,5.9,3.8,6.1,3.7,6.2
	C3.6,6.3,3.5,6.4,3.5,6.5C3.3,6.8,3.2,7,3.1,7.3C3,7.5,2.9,7.8,2.9,8.1c0,0.3,0,0.5,0.1,0.7c0.2,0.5,0.7,0.8,1.2,1
	c0.1,0,0.1,0,0.2,0.1l0,0l0,0c0,0,0.1,0,0.1,0c0.1,0,0.3,0,0.4,0c0.3,0,0.5-0.1,0.8-0.2c0.5-0.2,0.9-0.6,1.2-1
	C7.1,8.5,7.3,8.2,7.4,8c0.1-0.3,0.2-0.5,0.3-0.8c0.2-0.5,0.2-1.1,0.2-1.7c0-0.6-0.2-1.1-0.3-1.7C7.4,3.2,7.1,2.7,6.9,2.1
	C6.8,1.9,6.6,1.6,6.5,1.3C6.4,1.2,6.4,1.1,6.3,0.9C6.2,0.8,6.1,0.7,6.1,0.6l0.4,0.1C6.1,0.9,5.6,1.3,5.2,1.6C4.8,1.9,4.4,2.2,4,2.6
	C3.6,2.9,3.3,3.3,2.9,3.7C2.8,3.8,2.7,3.9,2.6,4C2.5,4.1,2.5,4.2,2.4,4.3C2.2,4.5,2,4.6,1.9,4.9C1.6,5.3,1.3,5.7,1.1,6.2
	C1,6.7,0.9,7.2,0.8,7.7c0,0.5,0.1,1,0.2,1.5c0.1,0.2,0.2,0.5,0.3,0.7C1.5,10.2,1.6,10.4,1.7,10.7L1.7,10.7
	C1.7,10.6,1.7,10.7,1.7,10.7C1.7,10.7,1.7,10.7,1.7,10.7z"/>
<path class="st0" d="M859.1,369.1c0.5-6.4,1.2-12.7,1.9-19l0.5-4.7l0.6-4.7l1.2-9.4l6.1,1.4c-1.5,6.2-2.7,12.6-4.1,18.8
	c-0.7,3.1-1.3,6.3-1.9,9.4c-0.6,3.1-1.2,6.3-1.8,9.4c-1.1,6.3-2.1,12.6-3,18.8c-0.8,6.2-1.7,12.5-1.5,18.6c0,1.5,0.1,3,0.4,4.4
	c0.2,1.4,0.5,2.6,1.2,4c1.2,2.7,2.7,5.3,4.6,7.3c1.9,2,4.3,3.2,6.9,3.1c2.5,0,5.2-1.2,7.6-3c2.4-1.8,4.5-4.1,6.5-6.5
	c1.9-2.5,3.7-5.1,5.3-7.9c3.2-5.5,5.9-11.4,8.2-17.3c9.4-24,14.2-49.6,17.6-75.1c0.8-6.4,1.6-12.8,2.2-19.2
	c0.7-6.4,1.3-12.8,1.8-19.2c0.6-6.4,1.1-12.8,1.6-19.3c0.5-6.4,0.9-12.9,1.2-19.2l9.5,1l-4.4,30.8c-1.5,10.3-3,20.5-4.5,30.8
	l-9.5,61.5c-0.8,5.1-1.5,10.2-2.1,15.3c-0.3,2.5-0.7,5.1-0.8,7.5l-0.1,0.9l0,0.9l-0.1,1.9c0,1.3,0,2.5,0,3.8c0,5,0.4,10,1.2,14.8
	c0.4,2.4,1,4.8,1.8,7c0.8,2.2,1.8,4.3,3.1,6c1.3,1.7,2.9,3,4.7,3.8c1.8,0.7,4,0.9,6.2,0.5c2.2-0.4,4.4-1.3,6.5-2.4
	c2.1-1.2,4.2-2.6,6.1-4.1c3.9-3.1,7.4-6.9,10.7-10.8c3.2-4,6.2-8.2,9-12.6c0.2-0.2,0.5-0.3,0.7-0.2c0.2,0.1,0.3,0.4,0.2,0.6
	c-2.3,4.7-4.8,9.3-7.8,13.7c-2.9,4.4-6.2,8.5-10.2,12.3c-2,1.9-4,3.6-6.4,5.1c-2.3,1.5-4.9,2.8-7.8,3.5c-2.8,0.8-6.1,0.9-9.2-0.1
	c-3.1-1-5.8-3-7.7-5.3c-2-2.3-3.4-4.9-4.5-7.5c-1.1-2.6-1.9-5.3-2.6-8c-1.3-5.4-1.8-10.7-2.1-16.1c-0.1-1.3-0.1-2.7-0.2-4l0-2
	c0-0.7,0-1.3,0-2.1c0.1-2.8,0.3-5.4,0.5-8.1c0.4-5.2,1-10.4,1.6-15.6c2.3-20.7,5.1-41.3,8.2-61.8c1.5-10.3,3.2-20.5,4.9-30.8
	c1.7-10.2,3.4-20.5,5.2-30.7l0-0.2c0.5-2.6,2.9-4.3,5.5-3.9c2.4,0.4,4.1,2.6,4,5.1c-1,13.1-2.4,26-4.1,38.9
	c-1.8,12.9-3.9,25.7-6.5,38.5c-1.3,6.4-2.6,12.7-4.1,19.1c-1.4,6.3-3,12.7-4.7,19c-3.3,12.6-7.1,25.1-11.8,37.2
	c-2.4,6.1-5,12.1-8.1,17.9c-1.6,2.9-3.3,5.7-5.2,8.4s-4.2,5.3-6.9,7.5c-1.3,1.1-2.8,2.1-4.5,2.9c-1.7,0.8-3.5,1.4-5.5,1.5
	c-2,0.1-4-0.2-5.8-1c-1.8-0.7-3.4-1.8-4.8-3c-2.8-2.5-4.8-5.5-6.4-8.6c-0.8-1.5-1.6-3.4-2.1-5.1c-0.5-1.8-0.9-3.5-1.1-5.2
	c-0.9-6.9-0.8-13.6-0.2-20.2c0.6-6.6,1.7-13.1,3.1-19.5c1.3-6.4,2.9-12.8,4.6-19.1c1.7-6.3,3.7-12.5,5.8-18.7l0.1-0.3
	c0.5-1.6,2.3-2.5,4-2c1.5,0.5,2.4,2.1,2,3.7l-2.2,9.3l-1.1,4.6l-1.2,4.6c-1.6,6.2-3.2,12.3-5,18.4c-0.1,0.3-0.4,0.4-0.6,0.3
	C859.3,369.6,859.1,369.3,859.1,369.1z"/>
<path class="st0" d="M871.8,298.7c1.2,0.5,1.9,1.2,2.7,1.8c0.7,0.6,1.1,1.2,1.5,1.9c0.8,1.2,1,2.4,0.9,3.5c-0.1,1.1-0.5,2.2-1.5,3.3
	c-1,1.1-2.2,2.1-4.6,3c-2.2-1.3-3.2-2.6-4-3.8c-0.7-1.2-1-2.3-0.9-3.4c0.1-1.1,0.5-2.2,1.4-3.2C868.3,300.8,869.5,299.9,871.8,298.7
	z"/>
<path class="st0" d="M517.7,246.8c12.6,16.7,20.6,37.4,21.2,58.8c0.3,10.7-1.3,21.5-4.7,31.7c-3.4,10.2-8.5,19.8-14.4,28.6
	c-6,8.9-12.8,17-20,24.8c-7.2,7.7-14.6,15.1-22,22.5l-2.8,2.8l-1.4,1.4c-0.5,0.5-1,0.9-1.5,1.4c-2,1.9-3.9,3.6-5.9,5.4
	c-4,3.5-8,6.9-12.1,10.2c-8.2,6.6-16.7,12.9-25.2,19c-2.2,1.6-5.2,1.1-6.8-1.1l-0.1-0.1L422,452l-1.3-2l-0.7-1l-0.3-0.5l-0.2-0.3
	l-0.1-0.2l-0.1-0.1l-0.1-0.1l-0.1-0.1c0,0.1-0.2-0.3-0.2-0.5c0-0.1-0.1-0.3-0.1-0.4l-0.1-0.2c1.6,1.3-4.6-2.8,5.8-6.1
	c3.9,1.7,2.2,1.5,2.7,1.5l0.1,0l0.1,0.1l0.2,0.2l0.1,0.1l0.1,0.1l0.1,0.1l0.1,0.2l0.2,0.3l0.3,0.5l0.7,1l0.7,1l0.4,0.6l0.2,0.3
	l0.1,0.2l0.1,0.2l0.1,0.3l0.1,0.2l0.1,0.3l0,0.2l0.1,0.2c0.2,0.7,0.2,1.9-0.2,2.9c-0.4,1.1-1.2,1.9-1.8,2.3l0,0
	c-2.3,1.6-5.4,1-7-1.3c-0.1-0.1-0.1-0.2-0.2-0.3c-10.6-17.7-20.5-36.1-27.6-55.8c-3.6-9.8-6.4-20.1-8.2-30.5
	c-1.8-10.4-2.5-21.1-1.9-31.8c0.3-5.3,1-10.6,2-15.9l0.8-3.9l1-3.9c0.6-2.6,1.4-5.2,2.3-7.7c3.5-10.2,8.7-19.9,15.7-28.3
	c7-8.4,16-15.4,26.5-19.4c5.2-2,10.8-3.1,16.4-3.4c5.6-0.3,11.2,0.4,16.5,1.6l-0.3-0.1c6,1,11.5,3.5,16.3,6.7
	c4.8,3.3,8.9,7.4,12.3,12.1c3.4,4.7,5.9,9.9,7.5,15.4c1.6,5.5,2.3,11.3,2.1,16.8c-0.3,11.2-3.3,22.3-8.9,31.9
	c-2.9,4.8-6.4,9.3-11,13c-2.3,1.8-5,3.4-8.1,4.2c-1.6,0.4-3.3,0.6-5,0.5c-1.8-0.2-3.5-0.7-5-1.6l-0.1,0c-0.2-0.1-0.4-0.3-0.6-0.4
	c-2.9-3-5.1-6.8-6.1-10.7c-1.1-4-1.3-8-1.1-11.8c0.2-3.9,0.7-7.6,1.3-11.2l0.9-5.4c0.3-1.9,0.8-3.8,1.3-5.6c2-7.3,4.8-14.2,8.1-20.9
	c3.3-6.7,7-13.1,11.1-19.3c4.1-6.2,8.5-12.1,13.3-17.8c4.8-5.7,9.8-11.1,15.2-16.2c5.4-5.1,11.1-9.9,17-14.3
	c5.9-4.4,12.1-8.5,18.6-12.2c12.9-7.3,26.6-13.2,41-17.2c14.4-4,29.3-5.5,44.2-5.7c14.9-0.2,29.7,1.2,44.4,3.4
	c14.7,2.2,29.2,5.3,43.5,9.1c14.3,3.8,28.5,8.1,42.4,13c7,2.4,13.9,4.9,20.8,7.5c6.9,2.6,13.8,5.3,20.6,8.1
	c13.7,5.5,27.2,11.3,40.7,17.3c13.4,6,26.8,12.2,40.1,18.3c13.3,6.1,26.6,12.5,39.9,18.5c6.7,3,13.4,6,20.1,8.8
	c6.7,2.8,13.5,5.5,20.4,7.7c3.4,1.1,6.9,2,10.3,2.5c1.7,0.3,3.4,0.4,5,0.3c0.4,0,0.8-0.1,1.2-0.1c0.4-0.1,0.7-0.1,1.1-0.3
	c0.8-0.2,1.7-0.5,2.5-0.8c3.2-1.2,6.1-3,8.4-5.4c2.2-2.5,3.7-5.6,4.4-9c0.7-3.4,0.7-6.9,0.3-10.5c-0.4-3.5-1.2-7.1-2.2-10.5
	c-2.1-6.9-5-13.7-8.5-20.1l0,0c-0.1-0.2,0-0.5,0.2-0.7c0.2-0.1,0.5-0.1,0.7,0.2c2,3.1,3.8,6.3,5.5,9.7c1.6,3.3,3.1,6.7,4.4,10.2
	c1.2,3.5,2.2,7.1,2.8,10.9c0.6,3.7,0.8,7.6,0.2,11.5c-0.6,3.8-2.2,7.7-4.8,10.8c-2.6,3.1-6,5.4-9.6,6.9c-0.9,0.4-1.8,0.7-2.8,1
	c-0.4,0.2-1,0.3-1.5,0.4c-0.5,0.1-1.1,0.2-1.6,0.2c-2.1,0.2-4.1,0.1-6,0c-3.9-0.4-7.5-1.3-11.2-2.2c-7.2-2-14.2-4.5-21.1-7.1
	c-6.9-2.6-13.7-5.4-20.5-8.3c-13.6-5.7-27-11.6-40.5-17.5c-13.4-5.9-26.9-11.8-40.3-17.5c-13.5-5.8-27-11.4-40.6-16.8
	c-6.8-2.7-13.6-5.3-20.5-7.9c-6.8-2.6-13.7-5.1-20.6-7.5c-13.8-4.8-27.6-9.4-41.7-13.4c-14-4-28.2-7.5-42.5-10.2
	c-14.3-2.7-28.8-4.5-43.3-4.9c-14.5-0.4-29.1,0.7-43.1,4.1c-3.5,0.9-7,1.9-10.4,3c-3.5,1.1-6.9,2.4-10.2,3.7
	c-6.8,2.7-13.4,5.8-19.7,9.4c-12.7,7.1-24.5,15.9-35,26c-10.5,10.1-19.8,21.4-27.6,33.7c-3.9,6.1-7.4,12.5-10.4,19.1
	c-3,6.6-5.6,13.4-7.2,20.3c-0.4,1.7-0.8,3.5-1,5.2l-0.8,5.4c-0.5,3.6-0.9,7.2-0.9,10.6c-0.1,3.5,0.3,6.9,1.3,10c1,3.1,2.6,5.8,4.9,8
	l-0.6-0.5c1.5,0.8,3.3,0.9,5.2,0.3c1.9-0.6,3.9-1.8,5.6-3.3c3.6-3,6.5-7,8.9-11.3c4.7-8.6,7.1-18.6,7.1-28.4c0-5-0.6-9.7-2.1-14.3
	c-1.4-4.6-3.6-8.9-6.5-12.7c-2.8-3.8-6.3-7.2-10.2-9.8c-3.9-2.6-8.3-4.4-12.7-5.1c-0.1,0-0.2,0-0.3,0l-0.1,0
	c-4.6-1-9.3-1.5-13.9-1.2c-4.6,0.3-9.2,1.3-13.5,3c-8.6,3.4-16.2,9.4-22.2,16.8c-6,7.4-10.6,16.1-13.7,25.2c-0.8,2.3-1.4,4.6-2,7
	l-0.9,3.6l-0.7,3.6c-0.9,4.8-1.5,9.7-1.8,14.5c-0.6,9.8,0.1,19.6,1.8,29.3c1.7,9.7,4.4,19.3,7.7,28.7c6.6,18.8,16,36.8,26.2,54.3
	l-7.2-1.5c-0.6,0.4-1.4,1.2-1.8,2.3c-0.4,1.1-0.4,2.2-0.2,2.9l0.1,0.2l0,0.1l0.1,0.3l0.1,0.2l0.1,0.2l0.1,0.1c0,0,0,0,0,0l-0.1-0.2
	l-0.3-0.5l-0.6-1l-0.6-1l-0.3-0.5l-0.2-0.2l-0.1-0.1c0,0,0,0,0,0l0,0l0,0l0.2,0.2l0.1,0.1l0,0c0.4,0-1.3-0.2,2.7,1.5
	c10.4-3.3,4.2-7.4,5.8-6.1l-0.1-0.2c0-0.1-0.1-0.3-0.1-0.4c-0.1-0.2-0.3-0.6-0.2-0.5l0-0.1l0,0c0,0,0,0,0,0l0.1,0.1l0.1,0.2l0.3,0.5
	l0.6,1l1.3,2l-7-1.4c8.6-5.9,17-11.9,25.1-18.2c4.1-3.2,8.1-6.4,12-9.7l2.9-2.5c1-0.8,1.9-1.7,2.9-2.5c0.5-0.4,0.9-0.8,1.4-1.2
	l1.4-1.3l2.8-2.7c15.1-14.5,30.4-28.5,42.4-45c6-8.2,11-17.2,14.7-26.6c3.6-9.4,5.5-19.6,5.7-29.7c0.2-10.2-1.4-20.4-4.4-30.3
	c-3-9.8-7.5-19.3-13.2-28c-0.1-0.2-0.1-0.5,0.1-0.7C517.3,246.6,517.6,246.6,517.7,246.8z"/>
</svg>
