<svg xmlns="http://www.w3.org/2000/svg" viewBox="0 0 614.97 310.9"><defs><style>.cls-1{fill:#225125;}.cls-2{fill:#e84a21;}</style></defs><title>Asset 1</title><g id="Layer_2" data-name="Layer 2"><g id="Camada_1" data-name="Camada 1"><path class="cls-1" d="M209.71,167.12a33.47,33.47,0,0,0-2.7-7.7,18.1,18.1,0,0,0-4.7-6.1,9.28,9.28,0,0,0-6.6-2,17.08,17.08,0,0,0-7,2.1A63.34,63.34,0,0,0,176,163a123.05,123.05,0,0,0-11,11.9,106.8,106.8,0,0,0-9.1,13.2,110,110,0,0,0-6.8,14.3,71.56,71.56,0,0,0-2.3,7.5q-.9,3.75-1.5,7.5c-.2,1.3-.3,2.5-.4,3.8a12.75,12.75,0,0,1-.1,1.9v1.6a14.36,14.36,0,0,0,1.6,5.9,11.65,11.65,0,0,0,9.8,5.9c4.4.4,9.2-1,13.8-3.2a64,64,0,0,0,12.8-8.9,96.75,96.75,0,0,0,11.2-11.8,117.27,117.27,0,0,0,9.4-13.6c1.4-2.4,2.8-4.8,4.1-7.3s2.5-5,3.7-7.5c2.4-5.1,4.7-10.2,6.8-15.4q1.65-3.9,3-7.8l1.4-4a35.63,35.63,0,0,0,1.3-3.9,2.61,2.61,0,0,1,3.2-1.8,2.68,2.68,0,0,1,1.8,3.1l-.1.4c-1.2,5.2-2.4,10.5-3.5,15.8s-2.2,10.5-3.3,15.8c-2.1,10.5-4.5,20.9-5.7,31.4-.3,2.6-.5,5.2-.6,7.7a45.14,45.14,0,0,0,.2,7.4c.3,2.3,1,4.5,1.9,5.5a4.35,4.35,0,0,0,.7.6c.1.1.3.1.4.2a2.54,2.54,0,0,1,.7.2,10.07,10.07,0,0,0,3,.1,15.08,15.08,0,0,0,6.3-2.7,38.46,38.46,0,0,0,5.8-5,81.89,81.89,0,0,0,9.7-12.7h0a.66.66,0,0,1,.7-.2.48.48,0,0,1,.2.6,61.52,61.52,0,0,1-7.6,14.7,38.41,38.41,0,0,1-5.7,6.4,20,20,0,0,1-8.1,4.5,16.68,16.68,0,0,1-5,.5,5.85,5.85,0,0,1-1.3-.2,8.33,8.33,0,0,1-1.5-.4,12,12,0,0,1-2.7-1.6,13,13,0,0,1-3.2-4.5,27.41,27.41,0,0,1-1.5-4.6c-1.2-6-1-11.6-.7-17.2s1.2-11.1,2.1-16.5,2.1-10.8,3.5-16.1c2.8-10.6,6.4-20.9,10.2-31.1l5,1.7c-1.3,2.7-2.5,5.1-3.9,7.6s-2.5,5-3.8,7.5c-2.5,5.1-4.8,10.1-7,15.3a210.46,210.46,0,0,1-15.4,30.3,99.3,99.3,0,0,1-10.6,13.8,61.4,61.4,0,0,1-13.9,11.3,41.32,41.32,0,0,1-8.6,3.7,29,29,0,0,1-9.8,1.3,22.21,22.21,0,0,1-10.2-2.7,20.58,20.58,0,0,1-7.9-7.6,23.45,23.45,0,0,1-3.2-10.1,21.76,21.76,0,0,1-.1-2.5v-2.3c.1-1.5.2-3.1.4-4.6a57,57,0,0,1,1.7-9,76.89,76.89,0,0,1,2.8-8.5,91,91,0,0,1,8.2-15.8,112.07,112.07,0,0,1,10.9-13.8,110.8,110.8,0,0,1,13-11.7c2.3-1.7,4.7-3.4,7.1-5a43,43,0,0,1,8-4.1,22.31,22.31,0,0,1,9.3-1.7,13.57,13.57,0,0,1,4.8,1.2,12.56,12.56,0,0,1,4,2.8,19.45,19.45,0,0,1,4.6,7.8,31,31,0,0,1,1.5,8.5.47.47,0,0,1-.5.5c0,.2-.2.1-.3-.2Z"/><path class="cls-2" d="M259.41,225.42a85.14,85.14,0,0,1-12.4-23,83.9,83.9,0,0,1-5.1-25.8,78.26,78.26,0,0,1,3.7-26.3,87.31,87.31,0,0,1,12-23.8c1.3-1.8,2.6-3.6,4-5.3l4.1-5.1c1.4-1.7,2.8-3.3,4.2-5s2.8-3.3,4.3-4.9l4.4-4.8,4.5-4.7c1.5-1.6,3.1-3.1,4.6-4.6s3.1-3.1,4.7-4.6c6.3-6,12.8-11.8,19.5-17.5s13.5-11,20.7-16.2a4.54,4.54,0,0,1,6.4,1.1l.1.1.1.1a76,76,0,0,1,4,6.5c1.3,2.2,2.5,4.4,3.8,6.6,2.4,4.4,4.8,8.9,6.9,13.5a210,210,0,0,1,11,28.3,138.46,138.46,0,0,1,6,30.1,85.41,85.41,0,0,1-3,31.3c-3,9.8-7,19.6-13.3,28.3a58.44,58.44,0,0,1-11,11.8,50.44,50.44,0,0,1-14.2,8.3,46.62,46.62,0,0,1-16.1,3.2,45.17,45.17,0,0,1-8.2-.5,15.53,15.53,0,0,1-2.1-.4l-1.1-.2-1-.3c-1.4-.4-2.6-.8-3.9-1.3a51.28,51.28,0,0,1-14.2-8,35.9,35.9,0,0,1-10.4-13.3,34.48,34.48,0,0,1-2.5-16.7,51.46,51.46,0,0,1,4.2-15.6,98.33,98.33,0,0,1,7.4-13.6c1.4-2.1,2.9-4.3,4.5-6.3a38.85,38.85,0,0,1,5.6-5.9,22.93,22.93,0,0,1,3.8-2.6,10.7,10.7,0,0,1,5.7-1.3,7.44,7.44,0,0,1,5.8,3.6,13,13,0,0,1,1.8,4.8,26.51,26.51,0,0,1,.2,8.4,66.66,66.66,0,0,1-1.2,7.8A124.16,124.16,0,0,1,297,190a197.67,197.67,0,0,1-15.6,25.7c-1.4,2-2.9,4-4.4,6s-2.7,3.9-3.9,5.9c-2.2,4.1-3.7,8.6-3.2,13a13.8,13.8,0,0,0,2.3,6.1,19.88,19.88,0,0,0,4.8,4.8,40.69,40.69,0,0,0,12.8,6,75.27,75.27,0,0,0,14.3,2.7,118,118,0,0,0,14.6.6,143,143,0,0,0,29.1-3.6,107.87,107.87,0,0,0,14-4.2,86.79,86.79,0,0,0,13.1-6.1,43.07,43.07,0,0,0,11-8.8,22.06,22.06,0,0,0,5.7-11.9,18.21,18.21,0,0,0,.1-3.3,16.45,16.45,0,0,0-.5-3.2,12.56,12.56,0,0,0-2.6-5.3c-2.5-2.7-6.9-3.4-11.2-2.8a42.06,42.06,0,0,0-13,4.2,64.35,64.35,0,0,0-11.9,7.5,82.71,82.71,0,0,0-19,20.6c-5,7.8-8.3,16.6-8.8,25.6s1.6,18.2,7.2,24.4a23.74,23.74,0,0,0,10.5,6.7,33.77,33.77,0,0,0,13.1,1.6c9.1-.4,18.2-3.3,26.7-7.4a123.85,123.85,0,0,0,24-15.7,173.36,173.36,0,0,0,20.8-20.3,221.94,221.94,0,0,0,17.7-23.2,267.16,267.16,0,0,0,15-25.3,365.41,365.41,0,0,0,23-54.3.45.45,0,0,1,.6-.3c.2.1.4.4.3.6a319.65,319.65,0,0,1-20.1,56,266.68,266.68,0,0,1-14.2,26.3,217.79,217.79,0,0,1-17.4,24.5,172.19,172.19,0,0,1-21,21.7,128.94,128.94,0,0,1-25.2,17.2,104.89,104.89,0,0,1-14.3,5.9,67.36,67.36,0,0,1-15.5,2.9,43,43,0,0,1-16.2-2,32.87,32.87,0,0,1-14.2-9,35.94,35.94,0,0,1-8-14.7,48.86,48.86,0,0,1-1.7-16.1,55.63,55.63,0,0,1,3.3-15.7,64.28,64.28,0,0,1,7.1-14.1,84.85,84.85,0,0,1,21.7-22.2,74.82,74.82,0,0,1,13.5-7.7,49.36,49.36,0,0,1,15.4-4.1,24.14,24.14,0,0,1,8.4.7,15.46,15.46,0,0,1,7.6,4.8,17,17,0,0,1,3.6,8,29.89,29.89,0,0,1,.4,4.1,27.28,27.28,0,0,1-.3,4.1,26.55,26.55,0,0,1-2.6,7.8,30.2,30.2,0,0,1-4.7,6.4,49.44,49.44,0,0,1-12.3,9.2c-8.9,4.9-18.6,7.9-28.3,10.1a156.41,156.41,0,0,1-29.7,3.5c-10,.2-20-.5-29.8-3.2a46.13,46.13,0,0,1-14-6.2,25.2,25.2,0,0,1-5.7-5.6,17.52,17.52,0,0,1-3.1-7.6,22,22,0,0,1,.4-8.1,31.39,31.39,0,0,1,2.8-7.4,55.19,55.19,0,0,1,4-6.6c1.4-2,2.8-4,4.1-6.1a199.87,199.87,0,0,0,14.3-25.5c4-8.8,7.4-18,9.1-27.3q.6-3.45.9-6.9a26.55,26.55,0,0,0-.4-6.4,6.13,6.13,0,0,0-.8-2.1c-.1-.2-.2-.3-.2-.2h0a4.36,4.36,0,0,0-1.3.5,10.87,10.87,0,0,0-2.2,1.7,36.51,36.51,0,0,0-4.4,5,58.71,58.71,0,0,0-3.9,5.8,82.64,82.64,0,0,0-6.5,12.5,44.43,44.43,0,0,0-3.3,13,25,25,0,0,0,2,12.2c3.4,7.5,11.1,12.9,19.5,15.9,1,.4,2.1.7,3.1,1l.8.2.7.2a7.77,7.77,0,0,0,1.6.2,28.3,28.3,0,0,0,6.5.2,40.11,40.11,0,0,0,12.8-2.7c8.2-3.2,15-9.3,20.2-16.8a73.81,73.81,0,0,0,6.7-12,115.4,115.4,0,0,0,4.9-13.2c2.7-8.7,3.2-18.1,2.5-27.4a135.57,135.57,0,0,0-5.3-28,204.81,204.81,0,0,0-10.2-27c-2-4.4-4.1-8.8-6.4-13.1-1.1-2.1-2.3-4.3-3.5-6.4s-2.4-4.2-3.6-6.2l6.6,1.3c-6.9,4.7-13.8,10-20.4,15.3s-13.2,10.8-19.6,16.6-12.5,11.6-18.4,17.8c-1.5,1.5-3,3.1-4.4,4.6s-2.9,3.1-4.3,4.7c-2.8,3.2-5.7,6.4-8.1,9.7a91.57,91.57,0,0,0-12.2,21.8,73,73,0,0,0-4.6,24.6,85,85,0,0,0,3.6,25,86.75,86.75,0,0,0,4.5,12,76.14,76.14,0,0,0,6.2,11.2h0a.62.62,0,0,1-.1.7C259.81,225.62,259.51,225.62,259.41,225.42Z"/><path class="cls-1" d="M475.11,186.22c.5-6.4,1.2-12.7,1.9-19l.5-4.7.6-4.7,1.2-9.4,6.1,1.4c-1.5,6.2-2.7,12.6-4.1,18.8-.7,3.1-1.3,6.3-1.9,9.4s-1.2,6.3-1.8,9.4c-1.1,6.3-2.1,12.6-3,18.8s-1.7,12.5-1.5,18.6a21.19,21.19,0,0,0,.4,4.4,12.22,12.22,0,0,0,1.2,4,25.88,25.88,0,0,0,4.6,7.3,9.07,9.07,0,0,0,6.9,3.1,13.29,13.29,0,0,0,7.6-3,40,40,0,0,0,6.5-6.5,72.54,72.54,0,0,0,5.3-7.9,124.27,124.27,0,0,0,8.2-17.3c9.4-24,14.2-49.6,17.6-75.1.8-6.4,1.6-12.8,2.2-19.2s1.3-12.8,1.8-19.2,1.1-12.8,1.6-19.3.9-12.9,1.2-19.2l9.5,1-4.4,30.8c-1.5,10.3-3,20.5-4.5,30.8l-9.5,61.5q-1.2,7.65-2.1,15.3c-.3,2.5-.7,5.1-.8,7.5l-.1.9v.9l-.1,1.9v3.8a90.49,90.49,0,0,0,1.2,14.8,39.91,39.91,0,0,0,1.8,7,22.68,22.68,0,0,0,3.1,6,12.19,12.19,0,0,0,4.7,3.8,11.62,11.62,0,0,0,6.2.5,23.27,23.27,0,0,0,6.5-2.4,50,50,0,0,0,6.1-4.1,78.06,78.06,0,0,0,10.7-10.8,143.33,143.33,0,0,0,9-12.6.66.66,0,0,1,.7-.2.48.48,0,0,1,.2.6,109.61,109.61,0,0,1-7.8,13.7,69.43,69.43,0,0,1-10.2,12.3A39.82,39.82,0,0,1,552,245a25.15,25.15,0,0,1-7.8,3.5,16,16,0,0,1-9.2-.1,17,17,0,0,1-7.7-5.3,27.7,27.7,0,0,1-4.5-7.5,57.42,57.42,0,0,1-2.6-8,88.8,88.8,0,0,1-2.1-16.1c-.1-1.3-.1-2.7-.2-4v-4.1c.1-2.8.3-5.4.5-8.1.4-5.2,1-10.4,1.6-15.6,2.3-20.7,5.1-41.3,8.2-61.8,1.5-10.3,3.2-20.5,4.9-30.8s3.4-20.5,5.2-30.7v-.2a4.82,4.82,0,0,1,5.5-3.9,4.9,4.9,0,0,1,4,5.1c-1,13.1-2.4,26-4.1,38.9s-3.9,25.7-6.5,38.5c-1.3,6.4-2.6,12.7-4.1,19.1s-3,12.7-4.7,19a342,342,0,0,1-11.8,37.2,169.14,169.14,0,0,1-8.1,17.9,90.34,90.34,0,0,1-5.2,8.4,37.5,37.5,0,0,1-6.9,7.5,20.45,20.45,0,0,1-4.5,2.9,14.5,14.5,0,0,1-5.5,1.5,12.71,12.71,0,0,1-5.8-1,16.91,16.91,0,0,1-4.8-3,29.24,29.24,0,0,1-6.4-8.6,28.74,28.74,0,0,1-2.1-5.1,34.54,34.54,0,0,1-1.1-5.2,91.14,91.14,0,0,1-.2-20.2,158.35,158.35,0,0,1,3.1-19.5c1.3-6.4,2.9-12.8,4.6-19.1s3.7-12.5,5.8-18.7l.1-.3a3.21,3.21,0,0,1,4-2,3.1,3.1,0,0,1,2,3.7l-2.2,9.3-1.1,4.6-1.2,4.6c-1.6,6.2-3.2,12.3-5,18.4a.45.45,0,0,1-.6.3C475.31,186.72,475.11,186.42,475.11,186.22Z"/><path class="cls-1" d="M487.81,115.82a11.52,11.52,0,0,1,2.7,1.8,6.62,6.62,0,0,1,1.5,1.9,5.28,5.28,0,0,1,.9,3.5,5.47,5.47,0,0,1-1.5,3.3,10.74,10.74,0,0,1-4.6,3,11.31,11.31,0,0,1-4-3.8,5.63,5.63,0,0,1-.9-3.4,5.39,5.39,0,0,1,1.4-3.2A17,17,0,0,1,487.81,115.82Z"/><path class="cls-1" d="M133.71,63.92c12.6,16.7,20.6,37.4,21.2,58.8a92.39,92.39,0,0,1-4.7,31.7,119.93,119.93,0,0,1-14.4,28.6,208.56,208.56,0,0,1-20,24.8c-7.2,7.7-14.6,15.1-22,22.5l-2.8,2.8-1.4,1.4c-.5.5-1,.9-1.5,1.4-2,1.9-3.9,3.6-5.9,5.4-4,3.5-8,6.9-12.1,10.2-8.2,6.6-16.7,12.9-25.2,19a4.83,4.83,0,0,1-6.8-1.1l-.1-.1v-.2l-1.3-2-.7-1-.3-.5-.2-.3-.1-.2-.1-.1-.1-.1-.1-.1c0,.1-.2-.3-.2-.5s-.1-.3-.1-.4l-.1-.2c1.6,1.3-4.6-2.8,5.8-6.1,3.9,1.7,2.2,1.5,2.7,1.5h.1l.1.1.2.2.1.1.1.1.1.1.1.2.2.3.3.5.7,1,.7,1,.4.6.2.3.1.2.1.2.1.3.1.2.1.3v.2l.1.2a5,5,0,0,1-.2,2.9,4.88,4.88,0,0,1-1.8,2.3h0a5,5,0,0,1-7-1.3c-.1-.1-.1-.2-.2-.3-10.6-17.7-20.5-36.1-27.6-55.8a175.9,175.9,0,0,1-8.2-30.5,140.61,140.61,0,0,1-1.9-31.8,123.38,123.38,0,0,1,2-15.9l.8-3.9L4,127a68.17,68.17,0,0,1,2.3-7.7A89.49,89.49,0,0,1,22,91a65.05,65.05,0,0,1,26.5-19.4,53.89,53.89,0,0,1,16.4-3.4,60.47,60.47,0,0,1,16.5,1.6l-.3-.1a42,42,0,0,1,16.3,6.7,50.75,50.75,0,0,1,19.8,27.5,53.83,53.83,0,0,1,2.1,16.8,67.09,67.09,0,0,1-8.9,31.9,48.5,48.5,0,0,1-11,13,22.32,22.32,0,0,1-8.1,4.2,16.68,16.68,0,0,1-5,.5,12.26,12.26,0,0,1-5-1.6h-.1c-.2-.1-.4-.3-.6-.4a24.51,24.51,0,0,1-6.1-10.7,36.92,36.92,0,0,1-1.1-11.8,98.17,98.17,0,0,1,1.3-11.2l.9-5.4a50.7,50.7,0,0,1,1.3-5.6,117.46,117.46,0,0,1,8.1-20.9,175.44,175.44,0,0,1,11.1-19.3,191.52,191.52,0,0,1,13.3-17.8,194.11,194.11,0,0,1,15.2-16.2,192,192,0,0,1,17-14.3,180.54,180.54,0,0,1,18.6-12.2,182.54,182.54,0,0,1,41-17.2c14.4-4,29.3-5.5,44.2-5.7a274.91,274.91,0,0,1,44.4,3.4,399.79,399.79,0,0,1,43.5,9.1c14.3,3.8,28.5,8.1,42.4,13,7,2.4,13.9,4.9,20.8,7.5s13.8,5.3,20.6,8.1c13.7,5.5,27.2,11.3,40.7,17.3s26.8,12.2,40.1,18.3,26.6,12.5,39.9,18.5c6.7,3,13.4,6,20.1,8.8s13.5,5.5,20.4,7.7a64.33,64.33,0,0,0,10.3,2.5,21.33,21.33,0,0,0,5,.3c.4,0,.8-.1,1.2-.1a4.51,4.51,0,0,0,1.1-.3,24.14,24.14,0,0,0,2.5-.8,22.5,22.5,0,0,0,8.4-5.4,19.52,19.52,0,0,0,4.4-9,33.48,33.48,0,0,0,.3-10.5,63.24,63.24,0,0,0-2.2-10.5,107.24,107.24,0,0,0-8.5-20.1h0a.66.66,0,0,1,.2-.7.53.53,0,0,1,.7.2,101.43,101.43,0,0,1,5.5,9.7c1.6,3.3,3.1,6.7,4.4,10.2a64.49,64.49,0,0,1,2.8,10.9,36.87,36.87,0,0,1,.2,11.5,22.44,22.44,0,0,1-4.8,10.8,25.1,25.1,0,0,1-9.6,6.9,23.07,23.07,0,0,1-2.8,1,6.58,6.58,0,0,1-1.5.4,8.75,8.75,0,0,1-1.6.2,40,40,0,0,1-6,0,82.16,82.16,0,0,1-11.2-2.2c-7.2-2-14.2-4.5-21.1-7.1s-13.7-5.4-20.5-8.3c-13.6-5.7-27-11.6-40.5-17.5s-26.9-11.8-40.3-17.5-27-11.4-40.6-16.8c-6.8-2.7-13.6-5.3-20.5-7.9s-13.7-5.1-20.6-7.5c-13.8-4.8-27.6-9.4-41.7-13.4s-28.2-7.5-42.5-10.2a274.69,274.69,0,0,0-43.3-4.9,163.84,163.84,0,0,0-43.1,4.1c-3.5.9-7,1.9-10.4,3s-6.9,2.4-10.2,3.7a154.75,154.75,0,0,0-19.7,9.4,171,171,0,0,0-35,26,182.26,182.26,0,0,0-27.6,33.7,153.33,153.33,0,0,0-10.4,19.1,109.19,109.19,0,0,0-7.2,20.3,47.63,47.63,0,0,0-1,5.2l-.8,5.4a78.45,78.45,0,0,0-.9,10.6,29.88,29.88,0,0,0,1.3,10,18.88,18.88,0,0,0,4.9,8l-.6-.5a6.62,6.62,0,0,0,5.2.3,16.21,16.21,0,0,0,5.6-3.3,39.79,39.79,0,0,0,8.9-11.3,59.8,59.8,0,0,0,7.1-28.4,45.44,45.44,0,0,0-2.1-14.3,40.23,40.23,0,0,0-6.5-12.7,41.28,41.28,0,0,0-10.2-9.8A32.39,32.39,0,0,0,80.11,79h-.4a50.34,50.34,0,0,0-13.9-1.2,44.79,44.79,0,0,0-13.5,3,55.18,55.18,0,0,0-22.2,16.8,82.25,82.25,0,0,0-13.7,25.2c-.8,2.3-1.4,4.6-2,7l-.9,3.6-.7,3.6a119.62,119.62,0,0,0-1.8,14.5,125.22,125.22,0,0,0,1.8,29.3,181.64,181.64,0,0,0,7.7,28.7c6.6,18.8,16,36.8,26.2,54.3l-7.2-1.5a4.88,4.88,0,0,0-1.8,2.3,5,5,0,0,0-.2,2.9l.1.2v.1l.1.3.1.2.1.2.1.1h0l-.1-.2-.3-.5-.6-1-.6-1-.3-.5-.2-.2-.1-.1h0l.2.2.1.1h0c.4,0-1.3-.2,2.7,1.5,10.4-3.3,4.2-7.4,5.8-6.1l-.1-.2c0-.1-.1-.3-.1-.4s-.3-.6-.2-.5v-.1h0l.1.1.1.2.3.5.6,1,1.3,2-7-1.4c8.6-5.9,17-11.9,25.1-18.2,4.1-3.2,8.1-6.4,12-9.7l2.9-2.5c1-.8,1.9-1.7,2.9-2.5.5-.4.9-.8,1.4-1.2l1.4-1.3,2.8-2.7c15.1-14.5,30.4-28.5,42.4-45a119.2,119.2,0,0,0,14.7-26.6,88.48,88.48,0,0,0,5.7-29.7,98,98,0,0,0-4.4-30.3,110.26,110.26,0,0,0-13.2-28,.62.62,0,0,1,.1-.7C133.31,63.72,133.61,63.72,133.71,63.92Z"/></g></g></svg>